<svg width="28" height="16" viewBox="0 0 28 16" fill="none" xmlns="http://www.w3.org/2000/svg">
<path d="M20.6633 0.247519C21.1393 0.143389 21.7661 0.0508189 22.0563 0.0276789C22.3466 0.00453893 23.7048 -0.00703102 27.5704 0.00453898L27.6285 2.83925L25.4809 2.8971L25.4228 9.0872H24.0298V6.3103C24.0298 3.53347 24.0298 3.53347 23.7512 3.22107C23.4842 2.90867 23.4146 2.8971 22.4975 2.90867C21.8474 2.92024 21.2902 3.01281 20.7794 3.18636C20.3615 3.3252 19.7346 3.61446 19.3864 3.82272C19.0381 4.04256 18.5041 4.4591 18.2139 4.7715C17.9237 5.0723 16.4378 6.8078 14.917 8.6244C13.3963 10.4409 11.8872 12.1996 11.5621 12.5351C11.2371 12.8822 10.6567 13.3797 10.2736 13.6574C9.89054 13.9351 9.18244 14.3401 8.70644 14.5599C8.23054 14.7797 7.41794 15.0574 6.90714 15.1731C6.15254 15.3467 5.43284 15.3814 0.0580401 15.393L0 12.5583L2.14759 12.5004L2.20563 6.3103H3.59864V9.0872C3.59864 11.864 3.59864 11.864 3.87724 12.188C4.14424 12.4888 4.21394 12.5004 5.13104 12.4888C5.78114 12.4773 6.33834 12.3847 6.84904 12.2112C7.26704 12.0723 7.89384 11.7831 8.24214 11.5748C8.59034 11.355 9.12434 10.9384 9.41454 10.626C9.70484 10.3252 11.1907 8.5897 12.7114 6.7731C14.2321 4.9566 15.7412 3.19793 16.0663 2.86239C16.3913 2.51529 16.9718 2.01777 17.3548 1.74008C17.7379 1.46239 18.4461 1.05744 18.922 0.837599C19.398 0.617769 20.1874 0.351649 20.6633 0.247519Z" fill="#77C23A"/>
<path fill-rule="evenodd" clip-rule="evenodd" d="M0.00179099 1.52722C-0.00981901 0.775161 0.0366208 0.115651 0.0946608 0.069371C0.152701 0.011521 1.53413 -4.88851e-05 3.15933 0.0346611C5.41138 0.0693711 6.32848 0.127221 6.99018 0.289211C7.46618 0.393341 8.25548 0.671031 8.73148 0.890861C9.20738 1.11069 9.91558 1.51565 10.2987 1.78177C10.6817 2.05945 11.355 2.66111 11.7962 3.13549C12.2373 3.60987 12.6668 4.10739 12.7481 4.24623C12.8758 4.46604 12.8874 4.54704 12.7597 4.70904C12.69 4.82474 12.2837 5.32224 11.1113 6.73384L10.7746 6.34044C10.6005 6.13214 10.1245 5.58834 9.72978 5.14874C9.33508 4.70904 8.69668 4.15367 8.32518 3.91069C7.94208 3.67929 7.29198 3.36689 6.87408 3.22805C6.17758 2.98507 5.89898 2.96193 0.0250106 2.89251L0.00179099 1.52722ZM15.8128 9.68424C15.3948 10.1817 14.9885 10.6793 14.9189 10.795C14.7912 10.9569 14.8028 11.0379 14.9305 11.2462C15.0118 11.3966 15.4413 11.8941 15.8824 12.3685C16.3235 12.8429 16.9968 13.4445 17.3799 13.7222C17.763 13.9883 18.4711 14.3933 18.9471 14.6131C19.423 14.833 20.1892 15.1107 20.6303 15.2264C21.3036 15.3999 21.9537 15.4346 24.5192 15.4346L27.5955 15.4462L27.6535 12.6115C21.7796 12.5421 21.501 12.5189 20.8045 12.2759C20.3866 12.1371 19.7365 11.8247 19.3534 11.5933C18.9819 11.3503 18.3434 10.795 17.9487 10.3553C17.554 9.91564 17.0781 9.37184 16.904 9.16354L16.5673 8.77024L15.8128 9.68424Z" fill="white"/>
</svg>
