<svg width="31" height="42" viewBox="0 0 31 42" fill="none" xmlns="http://www.w3.org/2000/svg">
<circle cx="5.16656" cy="33.2776" r="1.72222" fill="#65DA00"/>
<circle cx="8.61089" cy="36.7221" r="1.72222" fill="#65DA00"/>
<circle cx="12.7447" cy="40.1666" r="1.72222" fill="#65DA00"/>
<circle cx="17.5665" cy="40.1666" r="1.72222" fill="#65DA00"/>
<circle cx="22.3887" cy="36.7221" r="1.72222" fill="#65DA00"/>
<circle cx="25.8335" cy="33.2776" r="1.72222" fill="#65DA00"/>
<circle cx="29.2779" cy="29.8332" r="1.72222" fill="#65DA00"/>
<circle cx="29.2779" cy="25.6999" r="1.72222" fill="#65DA00"/>
<circle cx="29.2779" cy="21.5666" r="1.72222" fill="#65DA00"/>
<circle cx="29.2779" cy="17.4333" r="1.72222" fill="#65DA00"/>
<circle cx="10.6778" cy="20.8776" r="1.72222" fill="white"/>
<circle cx="14.1221" cy="24.3221" r="1.72222" fill="white"/>
<circle cx="16.878" cy="20.8776" r="1.72222" fill="white"/>
<circle cx="20.3223" cy="17.4333" r="1.72222" fill="white"/>
<circle cx="1.72222" cy="29.8332" r="1.72222" fill="#65DA00"/>
<circle cx="1.72222" cy="25.6999" r="1.72222" fill="#65DA00"/>
<circle cx="1.72222" cy="21.5666" r="1.72222" fill="#65DA00"/>
<circle cx="1.72222" cy="17.4333" r="1.72222" fill="#65DA00"/>
<circle cx="1.72222" cy="13.2999" r="1.72222" fill="#65DA00"/>
<circle cx="29.2779" cy="13.2999" r="1.72222" fill="#65DA00"/>
<circle cx="1.72222" cy="9.16656" r="1.72222" fill="#65DA00"/>
<circle cx="29.2779" cy="9.16656" r="1.72222" fill="#65DA00"/>
<circle cx="5.16656" cy="5.7221" r="1.72222" fill="#65DA00"/>
<circle cx="9.29986" cy="3.65545" r="1.72222" fill="#65DA00"/>
<circle cx="13.4332" cy="2.65533" r="1.72222" fill="#65DA00"/>
<circle cx="17.5665" cy="2.65533" r="1.72222" fill="#65DA00"/>
<circle cx="21.6998" cy="3.65545" r="1.72222" fill="#65DA00"/>
<circle cx="25.8335" cy="5.7221" r="1.72222" fill="#65DA00"/>
</svg>
